<svg width="201" height="39" viewBox="0 0 201 39" fill="none" xmlns="http://www.w3.org/2000/svg">
<g clip-path="url(#clip0_836_167)">
<rect width="39" height="39" rx="10" fill="#F7F8FC" fill-opacity="0.533333"/>
<path d="M18.3344 32.5H9.66444V8.088H18.3344C26.0864 8.088 30.7784 13.052 30.7784 20.158C30.7784 27.264 25.9164 32.5 18.3344 32.5ZM14.8324 12.542V28.046H18.0624C22.9244 28.046 25.4744 25.224 25.4744 20.158C25.4744 15.296 22.9244 12.542 18.0624 12.542H14.8324Z" fill="#6366F1"/>
</g>
<path d="M51.554 29H44.924V10.332H51.554C57.482 10.332 61.07 14.128 61.07 19.562C61.07 24.996 57.352 29 51.554 29ZM48.876 13.738V25.594H51.346C55.064 25.594 57.014 23.436 57.014 19.562C57.014 15.844 55.064 13.738 51.346 13.738H48.876ZM69.5346 29.234C65.3746 29.234 62.5926 26.348 62.5926 22.006C62.5926 17.872 65.4786 14.856 69.4826 14.856C73.8766 14.856 76.7886 18.418 76.1386 22.942H66.2846C66.5186 25.204 67.6106 26.452 69.4566 26.452C71.0426 26.452 72.1086 25.672 72.5246 24.294H76.1126C75.3326 27.44 72.9146 29.234 69.5346 29.234ZM69.4046 17.508C67.7146 17.508 66.6486 18.6 66.3366 20.654H72.3166C72.2126 18.73 71.1206 17.508 69.4046 17.508ZM77.3954 22.058C77.3954 17.95 79.8134 14.856 83.5574 14.856C85.2214 14.856 86.6254 15.584 87.6654 16.91V10.332H91.2534V29H87.9514V26.998C86.8594 28.454 85.3514 29.26 83.5574 29.26C79.8134 29.26 77.3954 26.114 77.3954 22.058ZM81.1134 22.058C81.1134 24.658 82.5954 26.036 84.3634 26.036C86.1574 26.036 87.6394 24.632 87.6394 22.006C87.6394 19.38 86.1314 18.054 84.3634 18.054C82.5954 18.054 81.1134 19.406 81.1134 22.058ZM100.511 29.234C96.3512 29.234 93.5692 26.348 93.5692 22.006C93.5692 17.872 96.4552 14.856 100.459 14.856C104.853 14.856 107.765 18.418 107.115 22.942H97.2612C97.4952 25.204 98.5872 26.452 100.433 26.452C102.019 26.452 103.085 25.672 103.501 24.294H107.089C106.309 27.44 103.891 29.234 100.511 29.234ZM100.381 17.508C98.6912 17.508 97.6252 18.6 97.3132 20.654H103.293C103.189 18.73 102.097 17.508 100.381 17.508Z" fill="#6366F1"/>
<path d="M121.559 15.116L116.463 29H112.511L107.389 15.116H111.289L114.591 24.892L117.919 15.116H121.559ZM128.695 29.234C124.535 29.234 121.753 26.348 121.753 22.006C121.753 17.872 124.639 14.856 128.643 14.856C133.037 14.856 135.949 18.418 135.299 22.942H125.445C125.679 25.204 126.771 26.452 128.617 26.452C130.203 26.452 131.269 25.672 131.685 24.294H135.273C134.493 27.44 132.075 29.234 128.695 29.234ZM128.565 17.508C126.875 17.508 125.809 18.6 125.497 20.654H131.477C131.373 18.73 130.281 17.508 128.565 17.508ZM141.359 29H137.719V10.332H141.359V29ZM150.736 29.26C146.706 29.26 143.69 26.088 143.69 22.058C143.69 18.002 146.706 14.856 150.736 14.856C154.766 14.856 157.782 18.002 157.782 22.058C157.782 26.088 154.766 29.26 150.736 29.26ZM150.736 26.062C152.53 26.062 154.064 24.632 154.064 22.058C154.064 19.484 152.53 18.08 150.736 18.08C148.942 18.08 147.408 19.484 147.408 22.058C147.408 24.632 148.942 26.062 150.736 26.062ZM173.947 22.058C173.947 26.166 171.529 29.26 167.785 29.26C166.147 29.26 164.743 28.558 163.703 27.206V34.018H160.089V15.116H163.417V17.144C164.483 15.662 166.017 14.856 167.785 14.856C171.529 14.856 173.947 17.976 173.947 22.058ZM170.229 22.058C170.229 19.458 168.747 18.054 166.979 18.054C165.211 18.054 163.729 19.432 163.729 22.058C163.729 24.684 165.211 26.036 166.979 26.036C168.747 26.036 170.229 24.71 170.229 22.058ZM182.294 29.234C178.134 29.234 175.352 26.348 175.352 22.006C175.352 17.872 178.238 14.856 182.242 14.856C186.636 14.856 189.548 18.418 188.898 22.942H179.044C179.278 25.204 180.37 26.452 182.216 26.452C183.802 26.452 184.868 25.672 185.284 24.294H188.872C188.092 27.44 185.674 29.234 182.294 29.234ZM182.164 17.508C180.474 17.508 179.408 18.6 179.096 20.654H185.076C184.972 18.73 183.88 17.508 182.164 17.508ZM194.933 22.266V29H191.319V15.116H194.647V17.794C195.661 16.026 197.819 14.96 200.055 14.96V18.704C196.987 18.47 194.933 19.198 194.933 22.266Z" fill="black"/>
<defs>
<clipPath id="clip0_836_167">
<rect width="39" height="39" rx="10" fill="white"/>
</clipPath>
</defs>
</svg>
