<svg width="290" height="65" viewBox="0 0 290 65" fill="none" xmlns="http://www.w3.org/2000/svg">
<path d="M70.6621 30.879C70.6621 22.027 78.2321 15.074 86.8441 15.074C95.4571 15.074 102.954 22.061 102.954 30.913C102.954 39.766 95.4621 46.818 86.8481 46.818C78.2351 46.818 70.6621 39.731 70.6621 30.879ZM77.1801 30.875C77.1801 36.578 81.2191 41.268 86.8091 41.268C91.9971 41.268 96.4041 36.69 96.4041 30.875C96.4041 25.443 91.8391 20.629 86.8091 20.629C81.7011 20.628 77.1801 25.409 77.1801 30.875Z" fill="black"/>
<path d="M228.924 43.456C227.474 45.019 224.003 46.788 220.707 46.788C214.643 46.788 209.43 42.628 209.43 36.688C209.43 30.983 214.737 26.976 220.915 26.976C224.254 26.976 227.361 28.36 228.881 29.932V27.344C228.881 23.72 225.765 20.662 221.476 20.662C218.143 20.662 215.318 21.616 212.882 23.101L212.864 17.549C215.118 16.24 218.518 15.109 222.376 15.109C229.567 15.109 235.239 20.133 235.239 26.784L235.241 46.022L228.903 46.048L228.924 43.456ZM221.831 32.048C218.088 32.048 215.19 34.273 215.19 37.018C215.19 39.843 218.257 41.98 222.002 41.98C225.802 41.98 228.874 39.487 228.874 36.811C228.874 34.312 225.631 32.048 221.831 32.048Z" fill="black"/>
<path d="M249.602 40.981C251.741 40.981 254.29 40.495 254.29 37.697C254.29 35.931 253.231 35.329 251.558 34.611L245.935 32.263C242.725 30.721 240.108 28.741 240.108 24.406C240.108 19.474 245.112 15.098 250.87 15.098C254.261 15.098 257.251 15.957 259.507 17.681V24.252C257.013 22.169 254.055 20.757 250.971 20.757C248.058 20.757 246.784 22.296 246.784 23.897C246.784 25.622 247.667 26.224 250.168 27.414L255.564 29.757C259.126 31.419 261.237 33.485 261.237 37.344C261.237 42.749 255.41 46.802 249.652 46.802C245.784 46.802 242.024 45.581 239.772 43.911V37.209C242.497 39.758 246.327 40.981 249.602 40.981Z" fill="black"/>
<path d="M277.883 41.431C279.501 41.431 280.894 40.967 282.5 39.817V45.63C281.135 46.462 278.873 47.027 276.433 47.027C270.616 47.027 266.272 42.734 266.272 36.373L266.309 21.362L261.288 21.265L261.234 16.038L266.346 16.033L266.357 8.41898L272.754 6.37598L272.772 15.984L281.418 16.002L281.405 21.283L272.844 21.344L272.826 35.713C272.826 39.275 274.677 41.431 277.883 41.431Z" fill="black"/>
<path d="M139.355 30.96C139.355 39.692 133.035 46.842 124.542 46.842C118.894 46.842 115.781 44.137 113.758 41.544L113.782 58.481H107.436L107.458 15.797L114.023 15.779L114.068 20.488C115.946 17.517 119.38 15.065 124.431 15.065C132.926 15.067 139.355 22.166 139.355 30.96ZM113.674 30.875C113.674 37.053 118.469 41.188 122.98 41.188C127.599 41.188 132.967 37.149 132.967 30.976C132.967 24.735 128.102 20.597 123.397 20.597C118.46 20.597 113.674 24.634 113.674 30.875Z" fill="black"/>
<path d="M156.245 15.126C161.297 15.126 164.724 17.578 166.601 20.545L166.652 15.839L173.214 15.852L173.235 58.537H166.897L166.918 41.599C164.891 44.203 161.783 46.907 156.131 46.907C147.643 46.907 141.321 39.748 141.321 31.014C141.32 22.221 147.745 15.126 156.245 15.126ZM157.28 20.656C152.568 20.656 147.705 24.794 147.705 31.031C147.705 37.213 153.069 41.252 157.689 41.252C162.2 41.252 167.001 37.107 167.001 30.93C167.002 24.694 162.21 20.656 157.28 20.656Z" fill="black"/>
<path d="M199.207 15.882L205.716 15.908L205.665 46.245L199.183 46.204L199.207 42.156C197.557 44.967 193.922 46.803 190.395 46.803C183.229 46.803 179.437 41.447 179.437 34.993L179.412 15.894H185.797L185.822 33.626C185.822 38.142 188.486 41.121 192.305 41.121C196.046 41.121 199.257 37.859 199.257 33.342L199.207 15.882Z" fill="black"/>
<path d="M55.3034 31.159L52.7454 33.678L28.2314 58.142C27.6414 58.738 26.7644 58.864 25.9404 58.042L21.1714 53.341C20.5834 52.696 20.5554 51.81 21.2334 51.128L41.2334 31.147L55.3034 31.159Z" fill="#18727D"/>
<path d="M55.3034 31.159L66.2204 42.105C66.7664 42.651 66.8083 43.784 66.1313 44.464L61.3734 49.202C60.8044 49.768 59.8474 49.733 59.2304 49.12L41.2354 31.147L55.3034 31.159Z" fill="#229A9A"/>
<path d="M18.8604 36.218L21.3464 33.753L45.3773 9.71803C45.9663 9.13003 46.9724 9.04403 47.6674 9.81803L52.4444 14.516C53.0554 15.133 53.0573 16.042 52.3783 16.72L32.8594 36.253L18.8604 36.218Z" fill="#25924A"/>
<path d="M18.8429 36.246L7.91394 25.313C7.36694 24.767 7.32794 23.633 8.00294 22.958L12.7529 18.21C13.3199 17.636 14.2799 17.676 14.8949 18.288L32.8579 36.254L18.8429 36.246Z" fill="#5EB84E"/>
</svg>
